<svg width="1261" height="1160" viewBox="0 0 1261 1160" fill="none" xmlns="http://www.w3.org/2000/svg">
<path d="M978.988 111.5C962.6 109.347 947.529 100.976 937.053 88.1918C892.928 34.3482 825.968 0 751 0C662.537 0 585.225 47.8273 543.425 119.078C535.534 132.528 523.003 142.791 508.166 147.594C395.494 184.065 314 290.008 314 415.018C314 570.2 439.58 696 594.49 696C678.416 696 753.733 659.076 805.135 600.56C822.628 580.647 851.332 573.096 876.665 580.891C899.031 587.773 922.786 591.477 947.404 591.477C1080.28 591.477 1188 483.57 1188 350.459C1188 228.073 1096.94 126.993 978.988 111.5Z" fill="#C4C4C4"/>
<path d="M978.988 111.5C962.6 109.347 947.529 100.976 937.053 88.1918C892.928 34.3482 825.968 0 751 0C662.537 0 585.225 47.8273 543.425 119.078C535.534 132.528 523.003 142.791 508.166 147.594C395.494 184.065 314 290.008 314 415.018C314 570.2 439.58 696 594.49 696C678.416 696 753.733 659.076 805.135 600.56C822.628 580.647 851.332 573.096 876.665 580.891C899.031 587.773 922.786 591.477 947.404 591.477C1080.28 591.477 1188 483.57 1188 350.459C1188 228.073 1096.94 126.993 978.988 111.5Z" fill="url(#paint0_linear_2_22)"/>
<path d="M644.78 228C715.45 228 777.721 263.932 814.292 318.509C828.587 339.843 854.038 352.717 879.691 351.546C882.826 351.403 885.98 351.331 889.15 351.331C1001.73 351.331 1093 442.522 1093 555.013C1093 591.931 1083.17 626.556 1065.98 656.416C1056.18 673.438 1053.96 694.119 1059.88 712.847C1066.01 732.228 1069.31 752.862 1069.31 774.267C1069.31 886.758 978.044 977.949 865.461 977.949C829.332 977.949 795.397 968.558 765.97 952.084C744.513 940.073 717.448 939.462 696.663 952.6C673.183 967.442 647.676 979.369 620.649 987.874C608.756 991.617 598.336 999.021 590.689 1008.87C542.906 1070.4 468.182 1110 384.202 1110C239.944 1110 123 993.152 123 849.013C123 785.359 145.807 727.027 183.701 681.731C191.719 672.148 196.746 660.349 197.852 647.904C209.781 513.701 303.156 402.898 428.257 365.176C444.443 360.295 457.788 348.705 465.923 333.884C500.557 270.781 567.669 228 644.78 228Z" fill="url(#paint1_linear_2_22)"/>
<path d="M549.138 188.606C644.111 170.693 737.094 199.447 804.532 258.774C817.96 270.587 835.703 276.477 853.527 275.057C1005.36 262.958 1145.09 367.325 1174.01 520.685C1204.98 684.869 1097.23 843.006 933.367 873.91C898.576 880.472 864.063 880.77 830.979 875.604C802.769 871.198 773.829 884.937 760.122 910.136C711.224 1000.04 623.923 1067.98 515.655 1088.4C324.175 1124.51 139.604 998.278 103.419 806.422C73.8334 649.555 152.614 497.394 287.01 427.381C302.016 419.564 313.321 406.095 318.656 390.097C352.209 289.484 437.701 209.623 549.138 188.606Z" stroke="black" stroke-opacity="0.5" stroke-width="10"/>
<path d="M508 331L508 426M458 376H553" stroke="black" stroke-opacity="0.5" stroke-width="5" stroke-linecap="round"/>
<path d="M839.687 95.4247L858.217 188.6M799.425 149.313L892.6 130.783" stroke="black" stroke-opacity="0.5" stroke-width="5" stroke-linecap="round"/>
<defs>
<linearGradient id="paint0_linear_2_22" x1="897.041" y1="-19.661" x2="550.925" y2="734.121" gradientUnits="userSpaceOnUse">
<stop stop-color="#B04FC4"/>
<stop offset="1" stop-color="#EC8B77"/>
</linearGradient>
<linearGradient id="paint1_linear_2_22" x1="770.082" y1="203.085" x2="294.423" y2="1110.32" gradientUnits="userSpaceOnUse">
<stop stop-color="#B04FC4"/>
<stop offset="1" stop-color="#EC8B77"/>
</linearGradient>
</defs>
</svg>
